<svg width="23" height="25" viewBox="0 0 23 25" fill="none" xmlns="http://www.w3.org/2000/svg">
<path d="M16.1 14.3169C14.6266 14.3169 13.9181 15.0704 11.5 15.0704C9.08192 15.0704 8.37857 14.3169 6.9 14.3169C3.09063 14.3169 0 17.152 0 20.6464V21.852C0 23.1001 1.10379 24.1126 2.46429 24.1126H20.5357C21.8962 24.1126 23 23.1001 23 21.852V20.6464C23 17.152 19.9094 14.3169 16.1 14.3169ZM20.5357 21.852H2.46429V20.6464C2.46429 18.4047 4.45625 16.5774 6.9 16.5774C7.64955 16.5774 8.86629 17.3309 11.5 17.3309C14.1542 17.3309 15.3453 16.5774 16.1 16.5774C18.5438 16.5774 20.5357 18.4047 20.5357 20.6464V21.852ZM11.5 13.5633C15.5815 13.5633 18.8929 10.5257 18.8929 6.78167C18.8929 3.03762 15.5815 0 11.5 0C7.41853 0 4.10714 3.03762 4.10714 6.78167C4.10714 10.5257 7.41853 13.5633 11.5 13.5633ZM11.5 2.26056C14.2158 2.26056 16.4286 4.29035 16.4286 6.78167C16.4286 9.27299 14.2158 11.3028 11.5 11.3028C8.78415 11.3028 6.57143 9.27299 6.57143 6.78167C6.57143 4.29035 8.78415 2.26056 11.5 2.26056Z" fill="black"/>
</svg>
